<?xml version="1.0" encoding="UTF-8" standalone="no"?>
<!-- Created with Inkscape (http://www.inkscape.org/) -->

<svg
  width="199.69424mm"
  height="123.74322mm"
  viewBox="0 0 199.69424 123.74322"
  version="1.1"
  id="svg1"
  xml:space="preserve"
  xmlns="http://www.w3.org/2000/svg"
  xmlns:svg="http://www.w3.org/2000/svg">
  <defs id="defs1" />
  <path
    id="rect8"
    style="fill:#ffffff;fill-opacity:1;stroke-width:1.058"
    d="M 57.480729,90.670311 142.47811,121.75885 199.69425,88.421351 -4.3995989e-7,123.74322 Z" />
  <path
    d="m 5.2827523,82.602501 v -9.144 h 1.4097 l 6.7055997,7.9756 v -7.9756 h 1.0287 v 9.144 h -1.4097 l -6.7055997,-7.9756 v 7.9756 z m 10.5918087,0 v -7.62 q 0,-0.4191 0.2032,-0.762 0.2032,-0.3556 0.5461,-0.5588 0.3556,-0.2032 0.7747,-0.2032 h 6.096 q 0.4191,0 0.762,0.2032 0.3556,0.2032 0.5588,0.5588 0.2032,0.3429 0.2032,0.762 v 7.62 h -1.0287 v -3.3401 h -7.0866 v 3.3401 z m 1.0287,-4.3688 h 7.0866 v -3.2512 q 0,-0.2032 -0.1524,-0.3429 -0.1397,-0.1524 -0.3429,-0.1524 h -6.096 q -0.2032,0 -0.3556,0.1524 -0.1397,0.1397 -0.1397,0.3429 z m 9.575806,4.3688 v -9.144 h 1.0414 v 4.0513 h 2.9464 l 3.4036,-4.0513 h 1.3208 v 0.0127 l -3.8227,4.5593 3.8354,4.5593 v 0.0127 h -1.3335 l -3.4036,-4.0513 h -2.9464 v 4.0513 z m 9.753602,0 v -7.62 q 0,-0.4191 0.2032,-0.762 0.2032,-0.3556 0.5461,-0.5588 0.3556,-0.2032 0.7747,-0.2032 h 6.096 q 0.4191,0 0.762,0.2032 0.3556,0.2032 0.5588,0.5588 0.2032,0.3429 0.2032,0.762 v 7.62 h -1.0287 v -3.3401 h -7.0866 v 3.3401 z m 1.0287,-4.3688 h 7.0866 v -3.2512 q 0,-0.2032 -0.1524,-0.3429 -0.1397,-0.1524 -0.3429,-0.1524 h -6.096 q -0.2032,0 -0.3556,0.1524 -0.1397,0.1397 -0.1397,0.3429 z m 9.563105,4.3688 v -9.144 h 1.4097 l 3.7973,4.5212 3.7973,-4.5212 h 1.4097 v 9.144 h -1.0287 v -7.9756 l -4.1783,4.9657 -4.1783,-4.9657 v 7.9756 z m 13.284195,0 q -0.4191,0 -0.7747,-0.2032 -0.3429,-0.2032 -0.5461,-0.5461 -0.2032,-0.3556 -0.2032,-0.7747 v -7.62 h 1.0287 v 7.62 q 0,0.2032 0.1397,0.3556 0.1524,0.1397 0.3556,0.1397 h 6.096 q 0.2032,0 0.3429,-0.1397 0.1524,-0.1524 0.1524,-0.3556 v -7.62 h 1.0287 v 7.62 q 0,0.4191 -0.2032,0.7747 -0.2032,0.3429 -0.5588,0.5461 -0.3429,0.2032 -0.762,0.2032 z m 16.738586,0 -2.9845,-3.556 h 1.3462 l 2.9972,3.5433 v 0.0127 z m -7.721599,0 v -9.1313 h 7.619999 q 0.4191,0 0.762,0.2159 0.3556,0.2032 0.5588,0.5461 0.2032,0.3429 0.2032,0.762 v 2.6797 q 0,0.4191 -0.2032,0.762 -0.2032,0.3429 -0.5588,0.5588 -0.3429,0.2032 -0.762,0.2032 h -6.5913 v 3.4036 z m 1.523999,-4.445 h 6.096 q 0.2032,0 0.3429,-0.1397 0.1524,-0.1397 0.1524,-0.3429 v -2.6797 q 0,-0.2032 -0.1524,-0.3429 -0.1397,-0.1524 -0.3429,-0.1524 h -6.096 q -0.2032,0 -0.3556,0.1524 -0.1397,0.1397 -0.1397,0.3429 v 2.6797 q 0,0.2032 0.1397,0.3429 0.1524,0.1397 0.3556,0.1397 z m 8.978909,4.445 v -7.62 q 0,-0.4191 0.2032,-0.762 0.2032,-0.3556 0.5461,-0.5588 0.3556,-0.2032 0.7747,-0.2032 h 6.096 q 0.4191,0 0.762,0.2032 0.3556,0.2032 0.5588,0.5588 0.2032,0.3429 0.2032,0.762 v 7.62 h -1.0287 v -3.3401 h -7.0866 v 3.3401 z m 1.0287,-4.3688 h 7.0866 v -3.2512 q 0,-0.2032 -0.1524,-0.3429 -0.1397,-0.1524 -0.3429,-0.1524 h -6.096 q -0.2032,0 -0.3556,0.1524 -0.1397,0.1397 -0.1397,0.3429 z m 14.477999,4.3688 q -0.419097,0 -0.774697,-0.2032 -0.3429,-0.2032 -0.5461,-0.5461 -0.2032,-0.3556 -0.2032,-0.7747 v -0.3556 h 1.0287 v 0.3556 q 0,0.2032 0.1397,0.3556 0.152397,0.1397 0.355597,0.1397 h 6.095997 q 0.2032,0 0.3429,-0.1397 0.1524,-0.1524 0.1524,-0.3556 v -2.0447 q 0,-0.2032 -0.1524,-0.3429 -0.1397,-0.1397 -0.3429,-0.1397 h -6.095997 q -0.419097,0 -0.774697,-0.2032 -0.3429,-0.2159 -0.5461,-0.5588 -0.2032,-0.3429 -0.2032,-0.762 v -2.0447 q 0,-0.4191 0.2032,-0.762 0.2032,-0.3556 0.5461,-0.5588 0.3556,-0.2032 0.774697,-0.2032 h 6.095997 q 0.4191,0 0.762,0.2032 0.3556,0.2032 0.5588,0.5588 0.2032,0.3429 0.2032,0.762 v 0.3556 h -1.0287 v -0.3556 q 0,-0.2032 -0.1524,-0.3429 -0.1397,-0.1524 -0.3429,-0.1524 h -6.095997 q -0.2032,0 -0.355597,0.1524 -0.1397,0.1397 -0.1397,0.3429 v 2.0447 q 0,0.2032 0.1397,0.3429 0.152397,0.1397 0.355597,0.1397 h 6.095997 q 0.4191,0 0.762,0.2159 0.3556,0.2032 0.5588,0.5461 0.2032,0.3429 0.2032,0.762 v 2.0447 q 0,0.4191 -0.2032,0.7747 -0.2032,0.3429 -0.5588,0.5461 -0.3429,0.2032 -0.762,0.2032 z m 8.991607,0 v -9.144 h 1.0287 v 4.0513 h 7.3025 v -4.0513 h 1.0414 v 9.144 h -1.0414 v -4.0513 h -7.3025 v 4.0513 z m 10.92199,0 v -9.144 h 1.0414 v 9.144 z m 2.59082,0 v -9.1313 h 7.62 q 0.4191,0 0.762,0.2159 0.3556,0.2032 0.5588,0.5461 0.2032,0.3429 0.2032,0.762 v 2.6797 q 0,0.4191 -0.2032,0.762 -0.2032,0.3429 -0.5588,0.5588 -0.3429,0.2032 -0.762,0.2032 h -6.5913 v 3.4036 z m 1.524,-4.445 h 6.096 q 0.2032,0 0.3429,-0.1397 0.1524,-0.1397 0.1524,-0.3429 v -2.6797 q 0,-0.2032 -0.1524,-0.3429 -0.1397,-0.1524 -0.3429,-0.1524 h -6.096 q -0.2032,0 -0.3556,0.1524 -0.1397,0.1397 -0.1397,0.3429 v 2.6797 q 0,0.2032 0.1397,0.3429 0.1524,0.1397 0.3556,0.1397 z m 8.5598,4.445 v -9.144 h 7.2263 q 0.4191,0 0.762,0.2032 0.3556,0.2032 0.5588,0.5588 0.2032,0.3429 0.2032,0.762 v 1.9431 q 0,0.1778 -0.0508,0.3556 -0.0381,0.1651 -0.1143,0.3175 0.2794,0.4191 0.4191,0.7239 0.1397,0.3048 0.1397,0.6223 v 2.1336 q 0,0.4191 -0.2032,0.7747 -0.2032,0.3429 -0.5588,0.5461 -0.3429,0.2032 -0.762,0.2032 z m 1.524,-1.0287 h 6.096 q 0.2032,0 0.3429,-0.1397 0.1524,-0.1524 0.1524,-0.3556 v -2.1336 q 0,-0.2032 -0.1524,-0.3429 -0.1397,-0.1524 -0.3429,-0.1524 h -6.096 q -0.2032,0 -0.3556,0.1524 -0.1397,0.1397 -0.1397,0.3429 v 2.1336 q 0,0.2032 0.1397,0.3556 0.1524,0.1397 0.3556,0.1397 z m 0,-4.1529 h 5.7023 q 0.2032,0 0.3429,-0.1397 0.1397,-0.1524 0.1397,-0.3556 v -1.9431 q 0,-0.2032 -0.1397,-0.3429 -0.1397,-0.1524 -0.3429,-0.1524 h -5.7023 q -0.2032,0 -0.3556,0.1524 -0.1397,0.1397 -0.1397,0.3429 v 1.9431 q 0,0.2032 0.1397,0.3556 0.1524,0.1397 0.3556,0.1397 z m 10.50291,5.1816 q -0.4191,0 -0.7747,-0.2032 -0.3429,-0.2032 -0.5461,-0.5461 -0.2032,-0.3556 -0.2032,-0.7747 v -7.62 h 1.0287 v 7.62 q 0,0.2032 0.1397,0.3556 0.1524,0.1397 0.3556,0.1397 h 6.096 q 0.2032,0 0.3429,-0.1397 0.1524,-0.1524 0.1524,-0.3556 v -7.62 h 1.0287 v 7.62 q 0,0.4191 -0.2032,0.7747 -0.2032,0.3429 -0.5588,0.5461 -0.3429,0.2032 -0.762,0.2032 z m 9.14398,0 v -9.144 h 1.0414 v 9.144 z m 2.60352,0 v -9.1567 h 1.0287 v 8.128 h 8.1153 v 1.0287 z m 9.90599,0 v -9.144 h 7.62 q 0.4191,0 0.762,0.2032 0.3556,0.2032 0.5588,0.5588 0.2032,0.3429 0.2032,0.762 v 6.096 q 0,0.4191 -0.2032,0.7747 -0.2032,0.3429 -0.5588,0.5461 -0.3429,0.2032 -0.762,0.2032 z m 1.524,-1.0287 h 6.096 q 0.2032,0 0.3429,-0.1397 0.1524,-0.1524 0.1524,-0.3556 v -6.096 q 0,-0.2032 -0.1524,-0.3429 -0.1397,-0.1524 -0.3429,-0.1524 h -6.096 q -0.2032,0 -0.3556,0.1524 -0.1397,0.1397 -0.1397,0.3429 v 6.096 q 0,0.2032 0.1397,0.3556 0.1524,0.1397 0.3556,0.1397 z m 9.16938,1.0287 v -9.144 h 1.0414 v 9.144 z m 2.59082,0 v -9.144 h 1.4097 l 6.7056,7.9756 v -7.9756 h 1.0287 v 9.144 h -1.4097 l -6.7056,-7.9756 v 7.9756 z m 12.09041,0 q -0.4191,0 -0.7747,-0.2032 -0.3429,-0.2032 -0.5461,-0.5461 -0.2032,-0.3556 -0.2032,-0.7747 v -6.096 q 0,-0.4191 0.2032,-0.762 0.2032,-0.3556 0.5461,-0.5588 0.3556,-0.2032 0.7747,-0.2032 h 6.096 q 0.4191,0 0.762,0.2032 0.3556,0.2032 0.5588,0.5588 0.2032,0.3429 0.2032,0.762 v 0.3683 h -1.0287 v -0.3683 q 0,-0.2032 -0.1524,-0.3429 -0.1397,-0.1524 -0.3429,-0.1524 h -6.096 q -0.2032,0 -0.3556,0.1524 -0.1397,0.1397 -0.1397,0.3429 v 6.096 q 0,0.2032 0.1397,0.3556 0.1524,0.1397 0.3556,0.1397 h 6.096 q 0.2032,0 0.3429,-0.1397 0.1524,-0.1524 0.1524,-0.3556 v -2.2606 h -2.2606 v -1.0414 h 3.2893 v 3.302 q 0,0.4191 -0.2032,0.7747 -0.2032,0.3429 -0.5588,0.5461 -0.3429,0.2032 -0.762,0.2032 z"
    id="path2"
    style="font-size:12.7px;line-height:14.2875px;font-family:Orbitron;-inkscape-font-specification:'Orbitron, Normal';letter-spacing:0px;fill:#ffffff;stroke-width:2.58757" />
  <path
    d="m 5.2827523,68.315001 v -9.144 h 1.4097 l 6.7055997,7.9756 v -7.9756 h 1.0287 v 9.144 h -1.4097 l -6.7055997,-7.9756 v 7.9756 z m 10.5918087,0 v -7.62 q 0,-0.4191 0.2032,-0.762 0.2032,-0.3556 0.5461,-0.5588 0.3556,-0.2032 0.7747,-0.2032 h 6.096 q 0.4191,0 0.762,0.2032 0.3556,0.2032 0.5588,0.5588 0.2032,0.3429 0.2032,0.762 v 7.62 h -1.0287 v -3.3401 h -7.0866 v 3.3401 z m 1.0287,-4.3688 h 7.0866 v -3.2512 q 0,-0.2032 -0.1524,-0.3429 -0.1397,-0.1524 -0.3429,-0.1524 h -6.096 q -0.2032,0 -0.3556,0.1524 -0.1397,0.1397 -0.1397,0.3429 z m 9.575806,4.3688 v -9.144 h 1.0414 v 4.0513 h 2.9464 l 3.4036,-4.0513 h 1.3208 v 0.0127 l -3.8227,4.5593 3.8354,4.5593 v 0.0127 h -1.3335 l -3.4036,-4.0513 h -2.9464 v 4.0513 z m 9.753602,0 v -7.62 q 0,-0.4191 0.2032,-0.762 0.2032,-0.3556 0.5461,-0.5588 0.3556,-0.2032 0.7747,-0.2032 h 6.096 q 0.4191,0 0.762,0.2032 0.3556,0.2032 0.5588,0.5588 0.2032,0.3429 0.2032,0.762 v 7.62 h -1.0287 v -3.3401 h -7.0866 v 3.3401 z m 1.0287,-4.3688 h 7.0866 v -3.2512 q 0,-0.2032 -0.1524,-0.3429 -0.1397,-0.1524 -0.3429,-0.1524 h -6.096 q -0.2032,0 -0.3556,0.1524 -0.1397,0.1397 -0.1397,0.3429 z m 9.563105,4.3688 v -9.144 h 1.4097 l 3.7973,4.5212 3.7973,-4.5212 h 1.4097 v 9.144 h -1.0287 v -7.9756 l -4.1783,4.9657 -4.1783,-4.9657 v 7.9756 z m 11.810995,0 v -7.62 q 0,-0.4191 0.2032,-0.762 0.2032,-0.3556 0.5461,-0.5588 0.3556,-0.2032 0.7747,-0.2032 h 6.096 q 0.4191,0 0.762,0.2032 0.3556,0.2032 0.5588,0.5588 0.2032,0.3429 0.2032,0.762 v 7.62 h -1.0287 v -3.3401 h -7.0866 v 3.3401 z m 1.0287,-4.3688 h 7.0866 v -3.2512 q 0,-0.2032 -0.1524,-0.3429 -0.1397,-0.1524 -0.3429,-0.1524 h -6.096 q -0.2032,0 -0.3556,0.1524 -0.1397,0.1397 -0.1397,0.3429 z m 17.284702,4.3688 -2.9845,-3.556 h 1.3462 l 2.9972,3.5433 v 0.0127 z m -7.7216,0 v -9.1313 h 7.62 q 0.4191,0 0.762,0.2159 0.3556,0.2032 0.5588,0.5461 0.2032,0.3429 0.2032,0.762 v 2.6797 q 0,0.4191 -0.2032,0.762 -0.2032,0.3429 -0.5588,0.5588 -0.3429,0.2032 -0.762,0.2032 h -6.5913 v 3.4036 z m 1.524,-4.445 h 6.096 q 0.2032,0 0.3429,-0.1397 0.1524,-0.1397 0.1524,-0.3429 v -2.6797 q 0,-0.2032 -0.1524,-0.3429 -0.1397,-0.1524 -0.3429,-0.1524 h -6.096 q -0.2032,0 -0.3556,0.1524 -0.1397,0.1397 -0.1397,0.3429 v 2.6797 q 0,0.2032 0.1397,0.3429 0.1524,0.1397 0.3556,0.1397 z m 10.452109,4.445 q -0.4191,0 -0.7747,-0.2032 -0.3429,-0.2032 -0.5461,-0.5461 -0.2032,-0.3556 -0.2032,-0.7747 v -7.62 h 1.0287 v 7.62 q 0,0.2032 0.1397,0.3556 0.1524,0.1397 0.3556,0.1397 h 6.096 q 0.2032,0 0.3429,-0.1397 0.1524,-0.1524 0.1524,-0.3556 v -7.62 h 1.0287 v 7.62 q 0,0.4191 -0.2032,0.7747 -0.2032,0.3429 -0.5588,0.5461 -0.3429,0.2032 -0.762,0.2032 z"
    id="path1"
    style="font-size:12.7px;line-height:14.2875px;font-family:Orbitron;-inkscape-font-specification:'Orbitron, Normal';letter-spacing:0px;fill:#ffffff;stroke-width:2.58757" />
  <path
    d="M 5.3440403,57.198531 V 4.2683979e-8 H 18.054824 L 50.07011,38.132351 V 4.2683979e-8 H 62.542567 V 57.198531 H 49.831783 L 17.657612,18.907291 v 38.29124 z m 66.0961297,0 V 4.2683979e-8 H 84.150954 L 116.16624,38.132351 V 4.2683979e-8 h 12.47245 V 57.198531 H 115.92791 L 83.753742,18.907291 v 38.29124 z m 65.69892,0 v 0 -12.63135 l 38.29123,-32.17417 H 137.13909 V 4.2683979e-8 h 57.19852 V 12.631341 l -38.29123,32.17417 h 38.29123 v 12.39302 z"
    id="text4"
    style="font-weight:900;font-size:79.4424px;font-family:Orbitron;-inkscape-font-specification:'Orbitron Heavy';letter-spacing:0px;fill:#ffffff;stroke-width:2.20673"
    aria-label="NNZ" />
</svg>
