<?xml version="1.0" encoding="UTF-8" standalone="no"?>
<!-- Created with Inkscape (http://www.inkscape.org/) -->

<svg
   width="132.69788mm"
   height="15.951169mm"
   viewBox="0 0 132.69788 15.951169"
   version="1.1"
   id="svg1"
   xmlns="http://www.w3.org/2000/svg"
   xmlns:svg="http://www.w3.org/2000/svg">
  <defs
     id="defs1" />
  <path
     d="M 7.9925176,8.7545161 V 4.233325 H 11.80251 v 4.5211911 z m -5.8927884,0 V 4.233325 H 5.8758551 V 8.7545161 Z M 12.598375,2.6923947 11.650111,3.7422593 H 7.9925176 V 0.7789318 C 8.4497167,0.7111986 8.5851831,0.5249323 8.6190497,0.2878661 L 5.8758551,0.0338666 V 3.7422593 H 2.2521289 L 0,2.8617277 v 8.0602503 h 0.3047994 c 0.8635983,0 1.7949298,-0.474132 1.7949298,-0.677332 V 9.2455818 H 5.8758551 V 15.900369 H 6.265321 c 0.8127984,0 1.7271966,-0.507999 1.7271966,-0.728132 V 9.2455818 H 11.80251 v 1.4223972 h 0.3556 c 0.694265,0 1.744129,-0.372533 1.761063,-0.507999 V 4.5889243 c 0.355599,-0.067733 0.575732,-0.2370662 0.694265,-0.3725326 z m 21.357131,8.2126503 h -0.186267 c -0.270932,1.032931 -0.558798,2.099729 -0.728131,2.404529 -0.1016,0.186266 -0.186267,0.220133 -0.321733,0.237066 h -0.660399 -0.745065 c -0.338666,0 -0.406399,-0.08467 -0.406399,-0.372533 V 4.7921239 c 0.355599,-0.0508 0.541865,-0.1523997 0.660398,-0.2878661 l -1.879596,-1.523997 -0.982131,1.1175978 h -2.624662 c 0.03387,-1.0329313 0.0508,-2.0997292 0.06773,-3.2003937 0.4064,-0.0507999 0.575733,-0.2201329 0.609599,-0.4741324 L 24.066456,0.169333 c 0,1.354664 0.01693,2.6754614 -0.03387,3.9285256 h -4.639724 l 0.152399,0.4910657 h 4.470392 C 23.981792,5.7403887 23.880192,6.8410532 23.693926,7.8909178 22.745661,7.5691851 21.61113,7.3151856 20.239533,7.1458526 L 20.121,7.3151856 c 1.032931,0.507999 2.167462,1.2530642 3.200393,2.0827959 -0.694265,2.3537285 -2.065862,4.4534575 -4.741324,6.2991875 l 0.186267,0.253999 c 3.149593,-1.43933 4.944523,-3.217327 5.960521,-5.266256 0.491066,0.507999 0.914398,1.032931 1.236131,1.523997 1.761063,0.677332 2.506129,-1.727196 -0.491066,-3.5051928 0.3556,-1.2869308 0.507999,-2.6754614 0.575733,-4.1147919 h 2.861727 v 9.1609147 c 0,1.320798 0.3048,1.727197 1.79493,1.727197 h 1.134531 c 2.065863,0 2.777061,-0.406399 2.777061,-1.202264 0,-0.372533 -0.118533,-0.609599 -0.592665,-0.829732 z M 47.997451,7.958651 c 0,-1.0329313 -0.846665,-1.8795963 -1.879597,-1.8795963 -1.032931,0 -1.879596,0.846665 -1.879596,1.8795963 0,1.0329313 0.846665,1.8795963 1.879596,1.8795963 1.032932,0 1.879597,-0.846665 1.879597,-1.8795963 z M 66.729918,8.7545161 V 4.233325 h 3.809992 v 4.5211911 z m -5.892789,0 V 4.233325 h 3.776126 V 8.7545161 Z M 71.335775,2.6923947 70.387511,3.7422593 H 66.729918 V 0.7789318 C 67.187117,0.7111986 67.322583,0.5249323 67.35645,0.2878661 L 64.613255,0.0338666 V 3.7422593 H 60.989529 L 58.7374,2.8617277 v 8.0602503 h 0.3048 c 0.863598,0 1.794929,-0.474132 1.794929,-0.677332 V 9.2455818 h 3.776126 v 6.6547872 h 0.389466 c 0.812799,0 1.727197,-0.507999 1.727197,-0.728132 V 9.2455818 h 3.809992 v 1.4223972 h 0.3556 c 0.694265,0 1.744129,-0.372533 1.761063,-0.507999 V 4.5889243 c 0.355599,-0.067733 0.575732,-0.2370662 0.694265,-0.3725326 z M 84.429457,4.571991 c 0.237067,0 0.423333,-0.084666 0.474133,-0.2709328 C 84.310924,3.6745261 83.26106,2.7431946 83.26106,2.7431946 l -0.897465,1.3377307 h -0.3556 V 0.7619985 c 0.4572,-0.0677332 0.575733,-0.2370662 0.626533,-0.4910657 L 80.077599,0.0169333 v 4.063992 H 77.436004 L 77.571471,4.571991 H 79.8236 c -0.440266,2.6415948 -1.253064,5.3509228 -2.607728,7.349052 l 0.203199,0.186266 c 1.066798,-0.914398 1.94733,-1.964262 2.658528,-3.1157267 v 6.8918527 h 0.389466 c 0.728132,0 1.54093,-0.389466 1.54093,-0.575732 V 6.5362538 c 0.4572,0.7450652 0.846665,1.7610632 0.863599,2.6585281 1.473197,1.3885301 3.28506,-1.6425301 -0.863599,-3.0141274 V 4.571991 Z m 0.474133,1.7102633 c 0.660398,1.0329313 1.320797,2.5230617 1.38853,3.8438587 1.727197,1.540931 3.53906,-2.1166621 -1.219197,-3.9454585 z m 6.214521,-2.201329 h -0.0508 V 0.846665 C 91.490643,0.7958651 91.643043,0.6265321 91.67691,0.3725326 L 89.069182,0.1185331 v 3.9623922 h -4.030126 l 0.135467,0.4910657 h 3.894659 v 8.771449 c 0,0.237066 -0.1016,0.338666 -0.423333,0.338666 -0.457199,0 -2.709328,-0.135466 -2.709328,-0.135466 v 0.237066 c 1.032931,0.1524 1.473197,0.389466 1.828796,0.694265 0.321733,0.321733 0.440266,0.778932 0.524933,1.422398 2.438395,-0.220133 2.777061,-1.015998 2.777061,-2.421462 V 4.571991 h 1.998129 c 0.237067,0 0.389466,-0.084666 0.440266,-0.2709328 C 92.980774,3.6745261 91.964776,2.709328 91.964776,2.709328 Z m 15.007139,1.7102633 h -4.74133 l 0.13547,0.4741324 h 10.83731 c 0.254,0 0.42334,-0.084666 0.47414,-0.2709328 C 112.1027,5.3509228 110.93431,4.402658 110.93431,4.402658 l -1.0668,1.3885306 h -1.76106 V 3.3697267 h 3.77612 c 0.254,0 0.42333,-0.084666 0.47413,-0.2709328 -0.7112,-0.6434654 -1.87959,-1.5578636 -1.87959,-1.5578636 l -1.03293,1.3377307 h -1.33773 V 0.7111986 c 0.45719,-0.0677332 0.59266,-0.2370662 0.62653,-0.4741324 L 106.12525,0.0169333 V 2.878661 h -1.7272 c 0.28787,-0.4571991 0.5588,-0.9651981 0.79587,-1.5070637 0.37253,0 0.59266,-0.1354664 0.6604,-0.338666 l -2.57387,-0.7958651 c -0.23706,1.8457297 -0.76199,3.725326 -1.40546,4.9783902 l 0.22013,0.1354664 c 0.74507,-0.507999 1.40547,-1.1683977 1.9812,-1.9811961 h 2.04893 z m -1.18533,5.5202554 V 8.2465171 h 4.40266 v 3.0649269 z m 4.74132,1.625597 c 0.64347,0 1.59173,-0.389466 1.60867,-0.524932 V 8.5682498 c 0.33866,-0.067733 0.55879,-0.2201329 0.66039,-0.3555993 l -1.86266,-1.4054639 -0.9144,0.9821314 h -4.13172 l -2.032,-0.8127984 v 6.0959874 h 0.27093 c 0.8128,0 1.65947,-0.423332 1.65947,-0.592665 V 11.80251 h 4.40266 v 1.134531 z M 97.658602,0.6265321 c 0.728132,0.7958651 1.456264,2.0489293 1.64253,3.1495938 1.879598,1.3377307 3.522128,-2.3875953 -1.507064,-3.2511936 z m 3.335858,7.5014519 c 0.47413,-0.067733 0.72813,-0.1862663 0.88053,-0.338666 L 99.809131,6.1467879 98.860866,7.3998521 H 96.93047 l 0.1016,0.4910657 h 2.099729 v 4.9614572 c -0.829732,0.338666 -1.659463,0.643465 -2.235196,0.829731 l 1.083732,2.218263 c 0.169333,-0.08467 0.287866,-0.186267 0.270932,-0.423333 0.694266,-0.677332 1.811863,-1.913463 2.539993,-2.861728 1.13453,2.387596 2.40453,2.878661 5.58799,2.878661 h 5.18159 c 0.1016,-0.897465 0.54186,-1.49013 1.30386,-1.676396 v -0.2032 c -2.06586,0.06773 -4.63972,0.06773 -6.50238,0.06773 -3.08187,0 -4.19946,-0.152399 -5.36786,-1.33773 z m 18.41073,-4.5889243 c 0.4572,0.8127984 0.52494,1.9981294 0.49107,2.6754614 0.82973,1.3715973 3.01413,-1.0498646 -0.28787,-2.7770612 z m -0.18626,-0.5587989 h 2.33679 v 3.9962588 c -0.82973,0.067733 -1.62559,0.1354664 -2.33679,0.2031996 z m 4.87679,3.9962588 -0.0169,-0.2370662 -0.86359,0.084666 V 3.2342603 c 0.32173,-0.0508 0.54186,-0.1862663 0.66039,-0.3217327 l -1.7103,-1.3207974 -0.77893,0.9143982 h -1.4732 c 0.508,-0.4741324 1.1684,-1.1175978 1.5748,-1.5578636 0.38947,-0.0169333 0.6096,-0.1523997 0.67733,-0.4233325 L 119.52373,0 c -0.0508,0.7111986 -0.13547,1.7271966 -0.2032,2.4383952 l -1.71027,-0.6434654 v 5.5033225 c -0.508,0.033867 -0.91439,0.067733 -1.21919,0.067733 l 0.23706,2.0658626 c 0.18627,-0.033867 0.4064,-0.1862663 0.508,-0.4063992 l 0.47413,-0.1185331 c -0.0169,2.4383954 -0.16933,4.8937234 -1.21919,6.8579864 l 0.22013,0.1524 c 2.31986,-2.031996 2.57386,-4.910657 2.60773,-7.4675855 0.84666,-0.2370662 1.62559,-0.4571991 2.33679,-0.677332 v 5.8081215 c 0,0.220133 -0.0847,0.321733 -0.33866,0.321733 -0.28787,0 -1.64253,-0.08467 -1.64253,-0.08467 v 0.237066 c 0.67733,0.118533 0.98213,0.304799 1.20226,0.575732 0.2032,0.270933 0.27093,0.711199 0.32173,1.253064 1.8796,-0.169333 2.11667,-0.880531 2.11667,-2.116662 V 7.2643857 Z m -3.23426,2.0997292 c 0.254,-0.0508 0.33866,-0.1523997 0.37253,-0.3217327 l -1.50706,-0.1523997 v 4.2333246 h 0.23706 c 0.38947,0 0.89747,-0.253999 0.89747,-0.372532 z m 4.58892,-8.6529163 c -0.11853,2.8955943 -0.79586,5.7234554 -1.79493,7.7215848 l 0.22013,0.1354664 c 1.81187,-1.523997 2.8956,-3.7930592 3.53906,-6.7563867 0.38947,0.016933 0.57574,-0.1354664 0.6604,-0.3555993 z m 1.08373,13.4789065 V 8.8561159 h 2.67546 v 5.0461231 z m 2.60773,-5.5371888 h -2.42146 l -2.06586,-0.7619985 v 8.2295833 h 0.33866 c 0.9652,0 1.54093,-0.338666 1.54093,-0.457199 v -0.982131 h 2.67546 v 1.320797 h 0.3556 c 0.98213,0 1.60867,-0.355599 1.60867,-0.457199 V 8.9915823 c 0.37253,-0.067733 0.54186,-0.169333 0.6604,-0.3217327 l -1.76107,-1.354664 z m -0.59266,-7.9925176 c 0.35559,3.4374599 1.03293,5.8081219 2.50612,7.4337187 0.28787,-1.0329313 0.8636,-1.69333 1.60867,-1.8795963 l 0.0339,-0.1862663 C 130.9537,4.8090572 129.39584,2.8109278 128.73544,0.3047994 Z"
     id="text1"
     style="font-weight:bold;font-size:16.9333px;line-height:19.05px;font-family:'Source Han Serif';-inkscape-font-specification:'Source Han Serif, Bold';letter-spacing:2.64583px;fill:#ffffff;stroke-width:1.058"
     aria-label="中丸・中村造船" />
</svg>
